<?xml version="1.0" encoding="UTF-8"?>
<svg xmlns="http://www.w3.org/2000/svg" width="168" height="28" viewBox="0 0 168 28">
  <defs>
    <!-- 浅木金 (初级, 与木纹主题统一) -->
    <linearGradient id="bgN" x1="0%" y1="0%" x2="0%" y2="100%">
      <stop offset="0%" stop-color="#EBD9A0"/><stop offset="50%" stop-color="#D9BC66"/><stop offset="100%" stop-color="#C2A21F"/>
    </linearGradient>
    <linearGradient id="bgH" x1="0%" y1="0%" x2="0%" y2="100%">
      <stop offset="0%" stop-color="#F2E3B3"/><stop offset="50%" stop-color="#E3C972"/><stop offset="100%" stop-color="#CCAC41"/>
    </linearGradient>
    <linearGradient id="bgP" x1="0%" y1="0%" x2="0%" y2="100%">
      <stop offset="0%" stop-color="#B08E36"/><stop offset="50%" stop-color="#A07E2A"/><stop offset="100%" stop-color="#8A6916"/>
    </linearGradient>
    <radialGradient id="star" cx="40%" cy="35%" r="65%">
      <stop offset="0%" stop-color="#FFE9A8"/><stop offset="100%" stop-color="#E3B93C"/>
    </radialGradient>
  </defs>

  <!-- State 1: Normal (初级 = 1星) 浅木金 -->
  <g>
    <rect x="0.75" y="0.75" width="54.5" height="26.5" rx="13" fill="url(#bgN)" stroke="#9A7B28" stroke-width="1.5"/>
    <rect x="7" y="9" width="12" height="11" rx="3" fill="#FFF9E8" opacity="0.95" stroke="#8A6916" stroke-width="1.2"/>
    <line x1="10" y1="9" x2="9" y2="5.8" stroke="#8A6916" stroke-width="1.3" stroke-linecap="round"/>
    <line x1="17" y1="9" x2="18" y2="5.8" stroke="#8A6916" stroke-width="1.3" stroke-linecap="round"/>
    <circle cx="9" cy="5.6" r="1.3" fill="#B8860B"/>
    <circle cx="18" cy="5.6" r="1.3" fill="#B8860B"/>
    <circle cx="10.5" cy="14.5" r="1.6" fill="#6B4E16"/>
    <circle cx="15.5" cy="14.5" r="1.6" fill="#6B4E16"/>
    <path d="M11.2,17.6 q1.8,1.4 3.6,0" stroke="#8A6916" stroke-width="1.2" fill="none" stroke-linecap="round"/>
    <g transform="translate(36,14) scale(7)">
      <path d="M0,-1 L0.225,-0.309 L0.951,-0.309 L0.363,0.118 L0.588,0.809 L0,0.382 L-0.588,0.809 L-0.363,0.118 L-0.951,-0.309 L-0.225,-0.309 Z" fill="url(#star)"/>
    </g>
  </g>

  <!-- State 2: Hover -->
  <g transform="translate(56,0)">
    <rect x="0.75" y="0.75" width="54.5" height="26.5" rx="13" fill="url(#bgH)" stroke="#9A7B28" stroke-width="1.5"/>
    <rect x="0.75" y="0.75" width="54.5" height="26.5" rx="13" fill="none" stroke="#FFD700" stroke-opacity="0.85" stroke-width="1.5"/>
    <rect x="7" y="9" width="12" height="11" rx="3" fill="#FFFFFF" opacity="0.97" stroke="#8A6916" stroke-width="1.2"/>
    <line x1="10" y1="9" x2="9" y2="5.8" stroke="#8A6916" stroke-width="1.3" stroke-linecap="round"/>
    <line x1="17" y1="9" x2="18" y2="5.8" stroke="#8A6916" stroke-width="1.3" stroke-linecap="round"/>
    <circle cx="9" cy="5.6" r="1.3" fill="#B8860B"/>
    <circle cx="18" cy="5.6" r="1.3" fill="#B8860B"/>
    <circle cx="10.5" cy="14.5" r="1.6" fill="#6B4E16"/>
    <circle cx="15.5" cy="14.5" r="1.6" fill="#6B4E16"/>
    <path d="M11.2,17.6 q1.8,1.4 3.6,0" stroke="#8A6916" stroke-width="1.2" fill="none" stroke-linecap="round"/>
    <g transform="translate(36,14) scale(7)">
      <path d="M0,-1 L0.225,-0.309 L0.951,-0.309 L0.363,0.118 L0.588,0.809 L0,0.382 L-0.588,0.809 L-0.363,0.118 L-0.951,-0.309 L-0.225,-0.309 Z" fill="url(#star)"/>
    </g>
  </g>

  <!-- State 3: Pressed -->
  <g transform="translate(112,1)">
    <rect x="0.75" y="0.75" width="54.5" height="26.5" rx="13" fill="url(#bgP)" stroke="#6B4E16" stroke-width="1.5"/>
    <rect x="7" y="9" width="12" height="11" rx="3" fill="#F3E9CC" opacity="0.97" stroke="#6B4E16" stroke-width="1.2"/>
    <line x1="10" y1="9" x2="9" y2="5.8" stroke="#6B4E16" stroke-width="1.3" stroke-linecap="round"/>
    <line x1="17" y1="9" x2="18" y2="5.8" stroke="#6B4E16" stroke-width="1.3" stroke-linecap="round"/>
    <circle cx="9" cy="5.6" r="1.3" fill="#8F6810"/>
    <circle cx="18" cy="5.6" r="1.3" fill="#8F6810"/>
    <circle cx="10.5" cy="14.5" r="1.6" fill="#4A340E"/>
    <circle cx="15.5" cy="14.5" r="1.6" fill="#4A340E"/>
    <path d="M11.2,17.6 q1.8,1.4 3.6,0" stroke="#6B4E16" stroke-width="1.2" fill="none" stroke-linecap="round"/>
    <g transform="translate(36,14) scale(7)">
      <path d="M0,-1 L0.225,-0.309 L0.951,-0.309 L0.363,0.118 L0.588,0.809 L0,0.382 L-0.588,0.809 L-0.363,0.118 L-0.951,-0.309 L-0.225,-0.309 Z" fill="#D9B84A"/>
    </g>
  </g>
</svg>